<?xml version="1.0" encoding="UTF-8"?>
      <mxfile host="codeviz.app" modified="2025-07-02T17:27:21.238Z" agent="CodeViz Exporter" version="14.6.5" type="device">
        <diagram id="codeviz-diagram" name="System Diagram">
          <mxGraphModel dx="1000" dy="1000" grid="1" gridSize="10" guides="1" tooltips="1" connect="1" arrows="1" fold="1" page="1" pageScale="1" pageWidth="1169" pageHeight="827" math="0" shadow="0">
            <root>
              <mxCell id="0"/>
              <mxCell id="1" parent="0"/>
              <mxCell id="1870" value="" style="html=1;whiteSpace=wrap;container=1;fillColor=#dae8fc;strokeColor=#6c8ebf;dashed=1;fillOpacity=20;strokeWidth=2;containerType=none;recursiveResize=0;movable=1;resizable=1;autosize=0;dropTarget=0" vertex="1" parent="1">
                <mxGeometry x="594.3682728690055" y="1157" width="288.15783122957373" height="244.07891561478687" as="geometry"/>
              </mxCell>
              <mxCell id="1870_label" value="Database Migrations&lt;br&gt;Alembic, Python" style="edgeLabel;html=1;align=center;verticalAlign=middle;resizable=0;labelBackgroundColor=white;spacing=5" vertex="1" parent="1">
                <mxGeometry x="602.3682728690055" y="1165" width="212.15783122957373" height="24" as="geometry"/>
              </mxCell>
<mxCell id="1871" value="" style="html=1;whiteSpace=wrap;container=1;fillColor=#dae8fc;strokeColor=#6c8ebf;dashed=1;fillOpacity=20;strokeWidth=2;containerType=none;recursiveResize=0;movable=1;resizable=1;autosize=0;dropTarget=0" vertex="1" parent="1">
                <mxGeometry x="22" y="622" width="572.3682728690055" height="779.0789156147869" as="geometry"/>
              </mxCell>
              <mxCell id="1871_label" value="Backend API&lt;br&gt;Flask, Python" style="edgeLabel;html=1;align=center;verticalAlign=middle;resizable=0;labelBackgroundColor=white;spacing=5" vertex="1" parent="1">
                <mxGeometry x="30" y="630" width="496.3682728690055" height="24" as="geometry"/>
              </mxCell>
<mxCell id="1872" value="" style="html=1;whiteSpace=wrap;container=1;fillColor=#dae8fc;strokeColor=#6c8ebf;dashed=1;fillOpacity=20;strokeWidth=2;containerType=none;recursiveResize=0;movable=1;resizable=1;autosize=0;dropTarget=0" vertex="1" parent="1">
                <mxGeometry x="713.9340358813279" y="22" width="486.31566245914746" height="429.07891561478687" as="geometry"/>
              </mxCell>
              <mxCell id="1872_label" value="Web Application&lt;br&gt;React, Vite" style="edgeLabel;html=1;align=center;verticalAlign=middle;resizable=0;labelBackgroundColor=white;spacing=5" vertex="1" parent="1">
                <mxGeometry x="721.9340358813279" y="30" width="410.31566245914746" height="24" as="geometry"/>
              </mxCell>
<mxCell id="1885" value="" style="html=1;whiteSpace=wrap;container=1;fillColor=#dae8fc;strokeColor=#6c8ebf;dashed=1;fillOpacity=20;strokeWidth=2;containerType=none;recursiveResize=0;movable=1;resizable=1;autosize=0;dropTarget=0" vertex="1" parent="1">
                <mxGeometry x="2268.5257018858797" y="1157" width="288.15783122957373" height="244.07891561478687" as="geometry"/>
              </mxCell>
              <mxCell id="1885_label" value="Database Migrations&lt;br&gt;Python / Alembic" style="edgeLabel;html=1;align=center;verticalAlign=middle;resizable=0;labelBackgroundColor=white;spacing=5" vertex="1" parent="1">
                <mxGeometry x="2276.5257018858797" y="1165" width="212.15783122957373" height="24" as="geometry"/>
              </mxCell>
<mxCell id="1886" value="" style="html=1;whiteSpace=wrap;container=1;fillColor=#dae8fc;strokeColor=#6c8ebf;dashed=1;fillOpacity=20;strokeWidth=2;containerType=none;recursiveResize=0;movable=1;resizable=1;autosize=0;dropTarget=0" vertex="1" parent="1">
                <mxGeometry x="1517.9995977873004" y="732.6140562568088" width="542.3682728690055" height="614.078915614787" as="geometry"/>
              </mxCell>
              <mxCell id="1886_label" value="Backend API&lt;br&gt;Python / Flask" style="edgeLabel;html=1;align=center;verticalAlign=middle;resizable=0;labelBackgroundColor=white;spacing=5" vertex="1" parent="1">
                <mxGeometry x="1525.9995977873004" y="740.6140562568088" width="466.3682728690055" height="24" as="geometry"/>
              </mxCell>
<mxCell id="1887" value="" style="html=1;whiteSpace=wrap;container=1;fillColor=#dae8fc;strokeColor=#6c8ebf;dashed=1;fillOpacity=20;strokeWidth=2;containerType=none;recursiveResize=0;movable=1;resizable=1;autosize=0;dropTarget=0" vertex="1" parent="1">
                <mxGeometry x="1743.0784731808174" y="22" width="486.3156624591477" height="429.07891561478687" as="geometry"/>
              </mxCell>
              <mxCell id="1887_label" value="Web Application&lt;br&gt;React / Vite" style="edgeLabel;html=1;align=center;verticalAlign=middle;resizable=0;labelBackgroundColor=white;spacing=5" vertex="1" parent="1">
                <mxGeometry x="1751.0784731808174" y="30" width="410.3156624591477" height="24" as="geometry"/>
              </mxCell>
              <mxCell id="1873" value="User&lt;br&gt;External Actor" style="rounded=1;whiteSpace=wrap;html=1;fillColor=#f5f5f5" vertex="1" parent="1">
                    <mxGeometry x="1080.683935328153" y="612" width="168.1578312295738" height="84.0789156147869" as="geometry"/>
                  </mxCell>
<mxCell id="1874" value="Cloudinary APIs&lt;br&gt;Image/Asset Storage" style="rounded=1;whiteSpace=wrap;html=1;fillColor=#f5f5f5" vertex="1" parent="1">
                    <mxGeometry x="872.5261040985793" y="612" width="168.1578312295738" height="84.0789156147869" as="geometry"/>
                  </mxCell>
<mxCell id="1875" value="PostgreSQL Database&lt;br&gt;SQLAlchemy" style="rounded=1;whiteSpace=wrap;html=1;fillColor=#f5f5f5" vertex="1" parent="1">
                    <mxGeometry x="381.21044163943174" y="1557" width="168.1578312295738" height="84.0789156147869" as="geometry"/>
                  </mxCell>
<mxCell id="1888" value="User&lt;br&gt;External Actor" style="rounded=1;whiteSpace=wrap;html=1;fillColor=#f5f5f5" vertex="1" parent="1">
                    <mxGeometry x="2050.367870656306" y="612" width="168.1578312295738" height="84.0789156147869" as="geometry"/>
                  </mxCell>
<mxCell id="1898" value="Cloudinary APIs&lt;br&gt;Cloudinary" style="rounded=1;whiteSpace=wrap;html=1;fillColor=#f5f5f5" vertex="1" parent="1">
                    <mxGeometry x="1288.8417665577267" y="612" width="168.1578312295738" height="84.0789156147869" as="geometry"/>
                  </mxCell>
<mxCell id="1899" value="Database&lt;br&gt;PostgreSQL / SQLite" style="rounded=1;whiteSpace=wrap;html=1;fillColor=#f5f5f5" vertex="1" parent="1">
                    <mxGeometry x="2034.867870656306" y="1557" width="168.1578312295738" height="84.0789156147869" as="geometry"/>
                  </mxCell>
<mxCell id="1876" value="Frontend Entry&lt;br&gt;React, JSX" style="rounded=1;whiteSpace=wrap;html=1;fillColor=#f5f5f5" vertex="1" parent="1872">
                    <mxGeometry x="68.02630520492897" y="120" width="168.1578312295738" height="84.0789156147869" as="geometry"/>
                  </mxCell>
<mxCell id="1877" value="API Client Services&lt;br&gt;JavaScript" style="rounded=1;whiteSpace=wrap;html=1;fillColor=#f5f5f5" vertex="1" parent="1872">
                    <mxGeometry x="40" y="305" width="168.1578312295738" height="84.0789156147869" as="geometry"/>
                  </mxCell>
<mxCell id="1878" value="Cloudinary Client&lt;br&gt;JavaScript" style="rounded=1;whiteSpace=wrap;html=1;fillColor=#f5f5f5" vertex="1" parent="1872">
                    <mxGeometry x="238.1578312295738" y="275" width="168.1578312295738" height="84.0789156147869" as="geometry"/>
                  </mxCell>
<mxCell id="1879" value="API Server&lt;br&gt;Flask" style="rounded=1;whiteSpace=wrap;html=1;fillColor=#f5f5f5" vertex="1" parent="1871">
                    <mxGeometry x="282.1709838320383" y="120" width="168.1578312295738" height="84.0789156147869" as="geometry"/>
                  </mxCell>
<mxCell id="1880" value="Authentication&lt;br&gt;Flask-JWT-Extended, Bcrypt" style="rounded=1;whiteSpace=wrap;html=1;fillColor=#f5f5f5" vertex="1" parent="1871">
                    <mxGeometry x="40" y="470" width="168.1578312295738" height="84.0789156147869" as="geometry"/>
                  </mxCell>
<mxCell id="1881" value="API Controllers&lt;br&gt;Flask Blueprints" style="rounded=1;whiteSpace=wrap;html=1;fillColor=#f5f5f5" vertex="1" parent="1871">
                    <mxGeometry x="126.05261040985795" y="285" width="168.1578312295738" height="84.0789156147869" as="geometry"/>
                  </mxCell>
<mxCell id="1882" value="Database Models&lt;br&gt;SQLAlchemy" style="rounded=1;whiteSpace=wrap;html=1;fillColor=#f5f5f5" vertex="1" parent="1871">
                    <mxGeometry x="126.05261040985795" y="655" width="168.1578312295738" height="84.0789156147869" as="geometry"/>
                  </mxCell>
<mxCell id="1883" value="App Extensions&lt;br&gt;Flask Extensions" style="rounded=1;whiteSpace=wrap;html=1;fillColor=#f5f5f5" vertex="1" parent="1871">
                    <mxGeometry x="324.21044163943174" y="305" width="168.1578312295738" height="84.0789156147869" as="geometry"/>
                  </mxCell>
<mxCell id="1884" value="Alembic Entry&lt;br&gt;Alembic" style="rounded=1;whiteSpace=wrap;html=1;fillColor=#f5f5f5" vertex="1" parent="1870">
                    <mxGeometry x="40" y="120" width="168.1578312295738" height="84.0789156147869" as="geometry"/>
                  </mxCell>
<mxCell id="1889" value="Entry Point&lt;br&gt;React / Vite" style="rounded=1;whiteSpace=wrap;html=1;fillColor=#f5f5f5" vertex="1" parent="1887">
                    <mxGeometry x="68.02630520492897" y="120" width="168.1578312295738" height="84.0789156147869" as="geometry"/>
                  </mxCell>
<mxCell id="1890" value="API &amp;amp; Cloud Services&lt;br&gt;JavaScript / Fetch" style="rounded=1;whiteSpace=wrap;html=1;fillColor=#f5f5f5" vertex="1" parent="1887">
                    <mxGeometry x="40" y="305" width="168.1578312295738" height="84.0789156147869" as="geometry"/>
                  </mxCell>
<mxCell id="1891" value="Global State Management&lt;br&gt;JavaScript / Context API" style="rounded=1;whiteSpace=wrap;html=1;fillColor=#f5f5f5" vertex="1" parent="1887">
                    <mxGeometry x="238.1578312295738" y="275" width="168.1578312295738" height="84.0789156147869" as="geometry"/>
                  </mxCell>
<mxCell id="1892" value="Flask Application&lt;br&gt;Python / Flask" style="rounded=1;whiteSpace=wrap;html=1;fillColor=#f5f5f5" vertex="1" parent="1886">
                    <mxGeometry x="67.81578312295738" y="120" width="168.1578312295738" height="84.0789156147869" as="geometry"/>
                  </mxCell>
<mxCell id="1893" value="API Controllers&lt;br&gt;Python / Flask" style="rounded=1;whiteSpace=wrap;html=1;fillColor=#f5f5f5" vertex="1" parent="1886">
                    <mxGeometry x="249.1578312295738" y="285" width="168.1578312295738" height="84.0789156147869" as="geometry"/>
                  </mxCell>
<mxCell id="1894" value="Authentication&lt;br&gt;Python / Flask-JWT-Extended" style="rounded=1;whiteSpace=wrap;html=1;fillColor=#f5f5f5" vertex="1" parent="1886">
                    <mxGeometry x="51" y="305" width="168.1578312295738" height="84.0789156147869" as="geometry"/>
                  </mxCell>
<mxCell id="1895" value="Database Models&lt;br&gt;Python / SQLAlchemy" style="rounded=1;whiteSpace=wrap;html=1;fillColor=#f5f5f5" vertex="1" parent="1886">
                    <mxGeometry x="79.02630520492897" y="490" width="168.1578312295738" height="84.0789156147869" as="geometry"/>
                  </mxCell>
<mxCell id="1896" value="Extensions &amp;amp; DB&lt;br&gt;Python / Flask-SQLAlchemy" style="rounded=1;whiteSpace=wrap;html=1;fillColor=#f5f5f5" vertex="1" parent="1886">
                    <mxGeometry x="305.2104416394317" y="470" width="168.1578312295738" height="84.0789156147869" as="geometry"/>
                  </mxCell>
<mxCell id="1897" value="Migration Environment&lt;br&gt;Python / Alembic" style="rounded=1;whiteSpace=wrap;html=1;fillColor=#f5f5f5" vertex="1" parent="1885">
                    <mxGeometry x="40" y="120" width="168.1578312295738" height="84.0789156147869" as="geometry"/>
                  </mxCell>
              <mxCell id="edge-2365" style="edgeStyle=orthogonalEdgeStyle;rounded=1;orthogonalLoop=1;jettySize=auto;html=1;strokeColor=#808080;strokeWidth=2;jumpStyle=arc;jumpSize=10;spacing=15;labelBackgroundColor=white;labelBorderColor=none" edge="1" parent="1" source="1873" target="1872">
                  <mxGeometry relative="1" as="geometry"/>
                </mxCell>
                <mxCell id="edge-2365_label" value="Interacts with" style="edgeLabel;html=1;align=center;verticalAlign=middle;resizable=0;points=[];" vertex="1" connectable="0" parent="edge-2365">
                  <mxGeometry x="-0.2" y="10" relative="1" as="geometry">
                    <mxPoint as="offset"/>
                  </mxGeometry>
                </mxCell>
<mxCell id="edge-2366" style="edgeStyle=orthogonalEdgeStyle;rounded=1;orthogonalLoop=1;jettySize=auto;html=1;strokeColor=#808080;strokeWidth=2;jumpStyle=arc;jumpSize=10;spacing=15;labelBackgroundColor=white;labelBorderColor=none" edge="1" parent="1" source="1872" target="1873">
                  <mxGeometry relative="1" as="geometry"/>
                </mxCell>
                <mxCell id="edge-2366_label" value="Serves UI" style="edgeLabel;html=1;align=center;verticalAlign=middle;resizable=0;points=[];" vertex="1" connectable="0" parent="edge-2366">
                  <mxGeometry x="-0.2" y="10" relative="1" as="geometry">
                    <mxPoint as="offset"/>
                  </mxGeometry>
                </mxCell>
<mxCell id="edge-2370" style="edgeStyle=orthogonalEdgeStyle;rounded=1;orthogonalLoop=1;jettySize=auto;html=1;strokeColor=#808080;strokeWidth=2;jumpStyle=arc;jumpSize=10;spacing=15;labelBackgroundColor=white;labelBorderColor=none" edge="1" parent="1" source="1878" target="1874">
                  <mxGeometry relative="1" as="geometry"/>
                </mxCell>
                <mxCell id="edge-2370_label" value="Uploads Assets" style="edgeLabel;html=1;align=center;verticalAlign=middle;resizable=0;points=[];" vertex="1" connectable="0" parent="edge-2370">
                  <mxGeometry x="-0.2" y="10" relative="1" as="geometry">
                    <mxPoint as="offset"/>
                  </mxGeometry>
                </mxCell>
<mxCell id="edge-2376" style="edgeStyle=orthogonalEdgeStyle;rounded=1;orthogonalLoop=1;jettySize=auto;html=1;strokeColor=#808080;strokeWidth=2;jumpStyle=arc;jumpSize=10;spacing=15;labelBackgroundColor=white;labelBorderColor=none" edge="1" parent="1" source="1882" target="1875">
                  <mxGeometry relative="1" as="geometry"/>
                </mxCell>
                <mxCell id="edge-2376_label" value="Persists Data" style="edgeLabel;html=1;align=center;verticalAlign=middle;resizable=0;points=[];" vertex="1" connectable="0" parent="edge-2376">
                  <mxGeometry x="-0.2" y="10" relative="1" as="geometry">
                    <mxPoint as="offset"/>
                  </mxGeometry>
                </mxCell>
<mxCell id="edge-2378" style="edgeStyle=orthogonalEdgeStyle;rounded=1;orthogonalLoop=1;jettySize=auto;html=1;strokeColor=#808080;strokeWidth=2;jumpStyle=arc;jumpSize=10;spacing=15;labelBackgroundColor=white;labelBorderColor=none" edge="1" parent="1" source="1884" target="1875">
                  <mxGeometry relative="1" as="geometry"/>
                </mxCell>
                <mxCell id="edge-2378_label" value="Manages Schema" style="edgeLabel;html=1;align=center;verticalAlign=middle;resizable=0;points=[];" vertex="1" connectable="0" parent="edge-2378">
                  <mxGeometry x="-0.2" y="10" relative="1" as="geometry">
                    <mxPoint as="offset"/>
                  </mxGeometry>
                </mxCell>
<mxCell id="edge-2367" style="edgeStyle=orthogonalEdgeStyle;rounded=1;orthogonalLoop=1;jettySize=auto;html=1;strokeColor=#808080;strokeWidth=2;jumpStyle=arc;jumpSize=10;spacing=15;labelBackgroundColor=white;labelBorderColor=none" edge="1" parent="1" source="1876" target="1877">
                  <mxGeometry relative="1" as="geometry"/>
                </mxCell>
                <mxCell id="edge-2367_label" value="Orchestrates UI" style="edgeLabel;html=1;align=center;verticalAlign=middle;resizable=0;points=[];" vertex="1" connectable="0" parent="edge-2367">
                  <mxGeometry x="-0.2" y="10" relative="1" as="geometry">
                    <mxPoint as="offset"/>
                  </mxGeometry>
                </mxCell>
<mxCell id="edge-2368" style="edgeStyle=orthogonalEdgeStyle;rounded=1;orthogonalLoop=1;jettySize=auto;html=1;strokeColor=#808080;strokeWidth=2;jumpStyle=arc;jumpSize=10;spacing=15;labelBackgroundColor=white;labelBorderColor=none" edge="1" parent="1" source="1876" target="1878">
                  <mxGeometry relative="1" as="geometry"/>
                </mxCell>
                <mxCell id="edge-2368_label" value="Handles Uploads" style="edgeLabel;html=1;align=center;verticalAlign=middle;resizable=0;points=[];" vertex="1" connectable="0" parent="edge-2368">
                  <mxGeometry x="-0.2" y="10" relative="1" as="geometry">
                    <mxPoint as="offset"/>
                  </mxGeometry>
                </mxCell>
<mxCell id="edge-2369" style="edgeStyle=orthogonalEdgeStyle;rounded=1;orthogonalLoop=1;jettySize=auto;html=1;strokeColor=#808080;strokeWidth=2;jumpStyle=arc;jumpSize=10;spacing=15;labelBackgroundColor=white;labelBorderColor=none" edge="1" parent="1" source="1877" target="1879">
                  <mxGeometry relative="1" as="geometry"/>
                </mxCell>
                <mxCell id="edge-2369_label" value="Calls REST API" style="edgeLabel;html=1;align=center;verticalAlign=middle;resizable=0;points=[];" vertex="1" connectable="0" parent="edge-2369">
                  <mxGeometry x="-0.2" y="10" relative="1" as="geometry">
                    <mxPoint as="offset"/>
                  </mxGeometry>
                </mxCell>
<mxCell id="edge-2372" style="edgeStyle=orthogonalEdgeStyle;rounded=1;orthogonalLoop=1;jettySize=auto;html=1;strokeColor=#808080;strokeWidth=2;jumpStyle=arc;jumpSize=10;spacing=15;labelBackgroundColor=white;labelBorderColor=none" edge="1" parent="1" source="1879" target="1880">
                  <mxGeometry relative="1" as="geometry"/>
                </mxCell>
                <mxCell id="edge-2372_label" value="Manages Auth" style="edgeLabel;html=1;align=center;verticalAlign=middle;resizable=0;points=[];" vertex="1" connectable="0" parent="edge-2372">
                  <mxGeometry x="-0.2" y="10" relative="1" as="geometry">
                    <mxPoint as="offset"/>
                  </mxGeometry>
                </mxCell>
<mxCell id="edge-2371" style="edgeStyle=orthogonalEdgeStyle;rounded=1;orthogonalLoop=1;jettySize=auto;html=1;strokeColor=#808080;strokeWidth=2;jumpStyle=arc;jumpSize=10;spacing=15;labelBackgroundColor=white;labelBorderColor=none" edge="1" parent="1" source="1879" target="1881">
                  <mxGeometry relative="1" as="geometry"/>
                </mxCell>
                <mxCell id="edge-2371_label" value="Handles Requests" style="edgeLabel;html=1;align=center;verticalAlign=middle;resizable=0;points=[];" vertex="1" connectable="0" parent="edge-2371">
                  <mxGeometry x="-0.2" y="10" relative="1" as="geometry">
                    <mxPoint as="offset"/>
                  </mxGeometry>
                </mxCell>
<mxCell id="edge-2373" style="edgeStyle=orthogonalEdgeStyle;rounded=1;orthogonalLoop=1;jettySize=auto;html=1;strokeColor=#808080;strokeWidth=2;jumpStyle=arc;jumpSize=10;spacing=15;labelBackgroundColor=white;labelBorderColor=none" edge="1" parent="1" source="1879" target="1883">
                  <mxGeometry relative="1" as="geometry"/>
                </mxCell>
                <mxCell id="edge-2373_label" value="Initializes DB/Auth" style="edgeLabel;html=1;align=center;verticalAlign=middle;resizable=0;points=[];" vertex="1" connectable="0" parent="edge-2373">
                  <mxGeometry x="-0.2" y="10" relative="1" as="geometry">
                    <mxPoint as="offset"/>
                  </mxGeometry>
                </mxCell>
<mxCell id="edge-2375" style="edgeStyle=orthogonalEdgeStyle;rounded=1;orthogonalLoop=1;jettySize=auto;html=1;strokeColor=#808080;strokeWidth=2;jumpStyle=arc;jumpSize=10;spacing=15;labelBackgroundColor=white;labelBorderColor=none" edge="1" parent="1" source="1881" target="1880">
                  <mxGeometry relative="1" as="geometry"/>
                </mxCell>
                <mxCell id="edge-2375_label" value="Authenticates" style="edgeLabel;html=1;align=center;verticalAlign=middle;resizable=0;points=[];" vertex="1" connectable="0" parent="edge-2375">
                  <mxGeometry x="-0.2" y="10" relative="1" as="geometry">
                    <mxPoint as="offset"/>
                  </mxGeometry>
                </mxCell>
<mxCell id="edge-2374" style="edgeStyle=orthogonalEdgeStyle;rounded=1;orthogonalLoop=1;jettySize=auto;html=1;strokeColor=#808080;strokeWidth=2;jumpStyle=arc;jumpSize=10;spacing=15;labelBackgroundColor=white;labelBorderColor=none" edge="1" parent="1" source="1881" target="1882">
                  <mxGeometry relative="1" as="geometry"/>
                </mxCell>
                <mxCell id="edge-2374_label" value="Accesses Data" style="edgeLabel;html=1;align=center;verticalAlign=middle;resizable=0;points=[];" vertex="1" connectable="0" parent="edge-2374">
                  <mxGeometry x="-0.2" y="10" relative="1" as="geometry">
                    <mxPoint as="offset"/>
                  </mxGeometry>
                </mxCell>
<mxCell id="edge-2377" style="edgeStyle=orthogonalEdgeStyle;rounded=1;orthogonalLoop=1;jettySize=auto;html=1;strokeColor=#808080;strokeWidth=2;jumpStyle=arc;jumpSize=10;spacing=15;labelBackgroundColor=white;labelBorderColor=none" edge="1" parent="1" source="1880" target="1882">
                  <mxGeometry relative="1" as="geometry"/>
                </mxCell>
                <mxCell id="edge-2377_label" value="Authenticates Users" style="edgeLabel;html=1;align=center;verticalAlign=middle;resizable=0;points=[];" vertex="1" connectable="0" parent="edge-2377">
                  <mxGeometry x="-0.2" y="10" relative="1" as="geometry">
                    <mxPoint as="offset"/>
                  </mxGeometry>
                </mxCell>
<mxCell id="edge-2399" style="edgeStyle=orthogonalEdgeStyle;rounded=1;orthogonalLoop=1;jettySize=auto;html=1;strokeColor=#808080;strokeWidth=2;jumpStyle=arc;jumpSize=10;spacing=15;labelBackgroundColor=white;labelBorderColor=none" edge="1" parent="1" source="1888" target="1887">
                  <mxGeometry relative="1" as="geometry"/>
                </mxCell>
                <mxCell id="edge-2399_label" value="Interacts with" style="edgeLabel;html=1;align=center;verticalAlign=middle;resizable=0;points=[];" vertex="1" connectable="0" parent="edge-2399">
                  <mxGeometry x="-0.2" y="10" relative="1" as="geometry">
                    <mxPoint as="offset"/>
                  </mxGeometry>
                </mxCell>
<mxCell id="edge-2400" style="edgeStyle=orthogonalEdgeStyle;rounded=1;orthogonalLoop=1;jettySize=auto;html=1;strokeColor=#808080;strokeWidth=2;jumpStyle=arc;jumpSize=10;spacing=15;labelBackgroundColor=white;labelBorderColor=none" edge="1" parent="1" source="1887" target="1888">
                  <mxGeometry relative="1" as="geometry"/>
                </mxCell>
                <mxCell id="edge-2400_label" value="Serves UI" style="edgeLabel;html=1;align=center;verticalAlign=middle;resizable=0;points=[];" vertex="1" connectable="0" parent="edge-2400">
                  <mxGeometry x="-0.2" y="10" relative="1" as="geometry">
                    <mxPoint as="offset"/>
                  </mxGeometry>
                </mxCell>
<mxCell id="edge-2402" style="edgeStyle=orthogonalEdgeStyle;rounded=1;orthogonalLoop=1;jettySize=auto;html=1;strokeColor=#808080;strokeWidth=2;jumpStyle=arc;jumpSize=10;spacing=15;labelBackgroundColor=white;labelBorderColor=none" edge="1" parent="1" source="1889" target="1890">
                  <mxGeometry relative="1" as="geometry"/>
                </mxCell>
                <mxCell id="edge-2402_label" value="Uses" style="edgeLabel;html=1;align=center;verticalAlign=middle;resizable=0;points=[];" vertex="1" connectable="0" parent="edge-2402">
                  <mxGeometry x="-0.2" y="10" relative="1" as="geometry">
                    <mxPoint as="offset"/>
                  </mxGeometry>
                </mxCell>
<mxCell id="edge-2401" style="edgeStyle=orthogonalEdgeStyle;rounded=1;orthogonalLoop=1;jettySize=auto;html=1;strokeColor=#808080;strokeWidth=2;jumpStyle=arc;jumpSize=10;spacing=15;labelBackgroundColor=white;labelBorderColor=none" edge="1" parent="1" source="1889" target="1891">
                  <mxGeometry relative="1" as="geometry"/>
                </mxCell>
                <mxCell id="edge-2401_label" value="Initializes" style="edgeLabel;html=1;align=center;verticalAlign=middle;resizable=0;points=[];" vertex="1" connectable="0" parent="edge-2401">
                  <mxGeometry x="-0.2" y="10" relative="1" as="geometry">
                    <mxPoint as="offset"/>
                  </mxGeometry>
                </mxCell>
<mxCell id="edge-2403" style="edgeStyle=orthogonalEdgeStyle;rounded=1;orthogonalLoop=1;jettySize=auto;html=1;strokeColor=#808080;strokeWidth=2;jumpStyle=arc;jumpSize=10;spacing=15;labelBackgroundColor=white;labelBorderColor=none" edge="1" parent="1" source="1890" target="1892">
                  <mxGeometry relative="1" as="geometry"/>
                </mxCell>
                <mxCell id="edge-2403_label" value="Calls REST API" style="edgeLabel;html=1;align=center;verticalAlign=middle;resizable=0;points=[];" vertex="1" connectable="0" parent="edge-2403">
                  <mxGeometry x="-0.2" y="10" relative="1" as="geometry">
                    <mxPoint as="offset"/>
                  </mxGeometry>
                </mxCell>
<mxCell id="edge-2404" style="edgeStyle=orthogonalEdgeStyle;rounded=1;orthogonalLoop=1;jettySize=auto;html=1;strokeColor=#808080;strokeWidth=2;jumpStyle=arc;jumpSize=10;spacing=15;labelBackgroundColor=white;labelBorderColor=none" edge="1" parent="1" source="1890" target="1898">
                  <mxGeometry relative="1" as="geometry"/>
                </mxCell>
                <mxCell id="edge-2404_label" value="Uploads to" style="edgeLabel;html=1;align=center;verticalAlign=middle;resizable=0;points=[];" vertex="1" connectable="0" parent="edge-2404">
                  <mxGeometry x="-0.2" y="10" relative="1" as="geometry">
                    <mxPoint as="offset"/>
                  </mxGeometry>
                </mxCell>
<mxCell id="edge-2405" style="edgeStyle=orthogonalEdgeStyle;rounded=1;orthogonalLoop=1;jettySize=auto;html=1;strokeColor=#808080;strokeWidth=2;jumpStyle=arc;jumpSize=10;spacing=15;labelBackgroundColor=white;labelBorderColor=none" edge="1" parent="1" source="1892" target="1893">
                  <mxGeometry relative="1" as="geometry"/>
                </mxCell>
                <mxCell id="edge-2405_label" value="Routes to" style="edgeLabel;html=1;align=center;verticalAlign=middle;resizable=0;points=[];" vertex="1" connectable="0" parent="edge-2405">
                  <mxGeometry x="-0.2" y="10" relative="1" as="geometry">
                    <mxPoint as="offset"/>
                  </mxGeometry>
                </mxCell>
<mxCell id="edge-2406" style="edgeStyle=orthogonalEdgeStyle;rounded=1;orthogonalLoop=1;jettySize=auto;html=1;strokeColor=#808080;strokeWidth=2;jumpStyle=arc;jumpSize=10;spacing=15;labelBackgroundColor=white;labelBorderColor=none" edge="1" parent="1" source="1892" target="1894">
                  <mxGeometry relative="1" as="geometry"/>
                </mxCell>
                <mxCell id="edge-2406_label" value="Handles auth with" style="edgeLabel;html=1;align=center;verticalAlign=middle;resizable=0;points=[];" vertex="1" connectable="0" parent="edge-2406">
                  <mxGeometry x="-0.2" y="10" relative="1" as="geometry">
                    <mxPoint as="offset"/>
                  </mxGeometry>
                </mxCell>
<mxCell id="edge-2407" style="edgeStyle=orthogonalEdgeStyle;rounded=1;orthogonalLoop=1;jettySize=auto;html=1;strokeColor=#808080;strokeWidth=2;jumpStyle=arc;jumpSize=10;spacing=15;labelBackgroundColor=white;labelBorderColor=none" edge="1" parent="1" source="1892" target="1896">
                  <mxGeometry relative="1" as="geometry"/>
                </mxCell>
                <mxCell id="edge-2407_label" value="Manages DB via" style="edgeLabel;html=1;align=center;verticalAlign=middle;resizable=0;points=[];" vertex="1" connectable="0" parent="edge-2407">
                  <mxGeometry x="-0.2" y="10" relative="1" as="geometry">
                    <mxPoint as="offset"/>
                  </mxGeometry>
                </mxCell>
<mxCell id="edge-2414" style="edgeStyle=orthogonalEdgeStyle;rounded=1;orthogonalLoop=1;jettySize=auto;html=1;strokeColor=#808080;strokeWidth=2;jumpStyle=arc;jumpSize=10;spacing=15;labelBackgroundColor=white;labelBorderColor=none" edge="1" parent="1" source="1892" target="1899">
                  <mxGeometry relative="1" as="geometry"/>
                </mxCell>
                <mxCell id="edge-2414_label" value="Uses schema from" style="edgeLabel;html=1;align=center;verticalAlign=middle;resizable=0;points=[];" vertex="1" connectable="0" parent="edge-2414">
                  <mxGeometry x="-0.2" y="10" relative="1" as="geometry">
                    <mxPoint as="offset"/>
                  </mxGeometry>
                </mxCell>
<mxCell id="edge-2408" style="edgeStyle=orthogonalEdgeStyle;rounded=1;orthogonalLoop=1;jettySize=auto;html=1;strokeColor=#808080;strokeWidth=2;jumpStyle=arc;jumpSize=10;spacing=15;labelBackgroundColor=white;labelBorderColor=none" edge="1" parent="1" source="1893" target="1895">
                  <mxGeometry relative="1" as="geometry"/>
                </mxCell>
                <mxCell id="edge-2408_label" value="Accesses" style="edgeLabel;html=1;align=center;verticalAlign=middle;resizable=0;points=[];" vertex="1" connectable="0" parent="edge-2408">
                  <mxGeometry x="-0.2" y="10" relative="1" as="geometry">
                    <mxPoint as="offset"/>
                  </mxGeometry>
                </mxCell>
<mxCell id="edge-2409" style="edgeStyle=orthogonalEdgeStyle;rounded=1;orthogonalLoop=1;jettySize=auto;html=1;strokeColor=#808080;strokeWidth=2;jumpStyle=arc;jumpSize=10;spacing=15;labelBackgroundColor=white;labelBorderColor=none" edge="1" parent="1" source="1893" target="1896">
                  <mxGeometry relative="1" as="geometry"/>
                </mxCell>
                <mxCell id="edge-2409_label" value="Queries / Persists" style="edgeLabel;html=1;align=center;verticalAlign=middle;resizable=0;points=[];" vertex="1" connectable="0" parent="edge-2409">
                  <mxGeometry x="-0.2" y="10" relative="1" as="geometry">
                    <mxPoint as="offset"/>
                  </mxGeometry>
                </mxCell>
<mxCell id="edge-2410" style="edgeStyle=orthogonalEdgeStyle;rounded=1;orthogonalLoop=1;jettySize=auto;html=1;strokeColor=#808080;strokeWidth=2;jumpStyle=arc;jumpSize=10;spacing=15;labelBackgroundColor=white;labelBorderColor=none" edge="1" parent="1" source="1894" target="1895">
                  <mxGeometry relative="1" as="geometry"/>
                </mxCell>
                <mxCell id="edge-2410_label" value="Authenticates against" style="edgeLabel;html=1;align=center;verticalAlign=middle;resizable=0;points=[];" vertex="1" connectable="0" parent="edge-2410">
                  <mxGeometry x="-0.2" y="10" relative="1" as="geometry">
                    <mxPoint as="offset"/>
                  </mxGeometry>
                </mxCell>
<mxCell id="edge-2412" style="edgeStyle=orthogonalEdgeStyle;rounded=1;orthogonalLoop=1;jettySize=auto;html=1;strokeColor=#808080;strokeWidth=2;jumpStyle=arc;jumpSize=10;spacing=15;labelBackgroundColor=white;labelBorderColor=none" edge="1" parent="1" source="1885" target="1899">
                  <mxGeometry relative="1" as="geometry"/>
                </mxCell>
                <mxCell id="edge-2412_label" value="Manages schema" style="edgeLabel;html=1;align=center;verticalAlign=middle;resizable=0;points=[];" vertex="1" connectable="0" parent="edge-2412">
                  <mxGeometry x="-0.2" y="10" relative="1" as="geometry">
                    <mxPoint as="offset"/>
                  </mxGeometry>
                </mxCell>
<mxCell id="edge-2411" style="edgeStyle=orthogonalEdgeStyle;rounded=1;orthogonalLoop=1;jettySize=auto;html=1;strokeColor=#808080;strokeWidth=2;jumpStyle=arc;jumpSize=10;spacing=15;labelBackgroundColor=white;labelBorderColor=none" edge="1" parent="1" source="1896" target="1899">
                  <mxGeometry relative="1" as="geometry"/>
                </mxCell>
                <mxCell id="edge-2411_label" value="Connects to" style="edgeLabel;html=1;align=center;verticalAlign=middle;resizable=0;points=[];" vertex="1" connectable="0" parent="edge-2411">
                  <mxGeometry x="-0.2" y="10" relative="1" as="geometry">
                    <mxPoint as="offset"/>
                  </mxGeometry>
                </mxCell>
<mxCell id="edge-2413" style="edgeStyle=orthogonalEdgeStyle;rounded=1;orthogonalLoop=1;jettySize=auto;html=1;strokeColor=#808080;strokeWidth=2;jumpStyle=arc;jumpSize=10;spacing=15;labelBackgroundColor=white;labelBorderColor=none" edge="1" parent="1" source="1897" target="1899">
                  <mxGeometry relative="1" as="geometry"/>
                </mxCell>
                <mxCell id="edge-2413_label" value="Applies migrations" style="edgeLabel;html=1;align=center;verticalAlign=middle;resizable=0;points=[];" vertex="1" connectable="0" parent="edge-2413">
                  <mxGeometry x="-0.2" y="10" relative="1" as="geometry">
                    <mxPoint as="offset"/>
                  </mxGeometry>
                </mxCell>
            </root>
          </mxGraphModel>
        </diagram>
      </mxfile>